<?xml version="1.0" encoding="utf-8"?>
<!-- Generator: Adobe Illustrator 21.0.0, SVG Export Plug-In . SVG Version: 6.00 Build 0)  -->
<svg version="1.1" id="Слой_1" xmlns="http://www.w3.org/2000/svg" xmlns:xlink="http://www.w3.org/1999/xlink" x="0px" y="0px"
	 viewBox="0 0 259 80" style="enable-background:new 0 0 259 80;" xml:space="preserve">
<style type="text/css">
	.st0{fill:#FF491D;}
	.st1{fill:#304F5F;}
</style>
<g>
	<g>
		<polygon class="st0" points="203.9,50.7 221.7,50.7 228.7,29.3 210.9,29.3 		"/>
		<path class="st0" d="M181.4,0C167.9,0,156,8.8,152,21.6L133.8,80h77.6c13.5,0,25.4-8.8,29.4-21.6L259,0H181.4z M196,29.5l-1.1,3.3
			h-7.1l1.2-3.6h-17.9l-7,21.5H182l2-6.2h-9l2.3-7.2h16.1L188,53.9c-0.8,2.3-2.9,3.9-5.4,3.9h-20.2c-3.8,0-6.6-3.8-5.4-7.4l8-24.5
			c0.8-2.3,2.9-3.9,5.4-3.9h20.2C194.4,22.1,197.1,25.8,196,29.5z M235.8,29.5l-8,24.5c-0.8,2.3-2.9,3.9-5.4,3.9h-20.2
			c-3.8,0-6.6-3.8-5.4-7.4l8-24.5c0.8-2.3,2.9-3.9,5.4-3.9h20.2C234.2,22.1,236.9,25.8,235.8,29.5z"/>
	</g>
	<g>
		<path class="st1" d="M11.5,28.8H0V22h31.2v6.8H19.7v29.1h-8.3V28.8H11.5z"/>
		<path class="st1" d="M60,50.2H43.4l-3.2,7.7h-8.5l16-35.8h8.2l16,35.8h-8.7L60,50.2z M57.4,43.9l-5.7-13.7L46,43.9H57.4z"/>
		<path class="st1" d="M101.7,57.9l-8.6-12.4l-8.5,12.4h-9.5l13.2-18.2L75.7,22.1h9.4l8.2,11.6l8.1-11.6h9L97.9,39.4l13.4,18.5
			L101.7,57.9L101.7,57.9z"/>
		<path class="st1" d="M117.1,22.1h8.3v35.8h-8.3V22.1z"/>
	</g>
</g>
</svg>
